<?xml version="1.0" standalone="no"?>
<!DOCTYPE svg PUBLIC "-//W3C//DTD SVG 20010904//EN"
 "http://www.w3.org/TR/2001/REC-SVG-20010904/DTD/svg10.dtd">
<svg version="1.0" xmlns="http://www.w3.org/2000/svg"
 width="574.000000pt" height="574.000000pt" viewBox="0 0 574.000000 574.000000"
 preserveAspectRatio="xMidYMid meet">

<g transform="translate(0.000000,574.000000) scale(0.100000,-0.100000)"
fill="#000000" stroke="none">
<path d="M0 2870 l0 -2870 2870 0 2870 0 0 2870 0 2870 -2870 0 -2870 0 0
-2870z m3070 773 l0 -468 330 330 330 330 112 -113 113 -112 -330 -330 -330
-330 468 0 467 0 0 -160 0 -160 -467 0 -468 0 330 -330 330 -330 -113 -112
-112 -113 -330 330 -330 330 0 -468 0 -467 -160 0 -160 0 0 847 0 848 -268
-268 -267 -267 -310 2 -310 3 -3 158 -3 157 468 0 468 0 -330 330 -330 330
113 112 112 113 330 -330 330 -330 0 468 0 467 160 0 160 0 0 -467z"/>
</g>
</svg>
